G04 #@! TF.GenerationSoftware,KiCad,Pcbnew,8.0.1*
G04 #@! TF.CreationDate,2024-11-07T22:36:47-08:00*
G04 #@! TF.ProjectId,hope_final_project,686f7065-5f66-4696-9e61-6c5f70726f6a,rev?*
G04 #@! TF.SameCoordinates,Original*
G04 #@! TF.FileFunction,Soldermask,Top*
G04 #@! TF.FilePolarity,Negative*
%FSLAX46Y46*%
G04 Gerber Fmt 4.6, Leading zero omitted, Abs format (unit mm)*
G04 Created by KiCad (PCBNEW 8.0.1) date 2024-11-07 22:36:47*
%MOMM*%
%LPD*%
G01*
G04 APERTURE LIST*
G04 Aperture macros list*
%AMRoundRect*
0 Rectangle with rounded corners*
0 $1 Rounding radius*
0 $2 $3 $4 $5 $6 $7 $8 $9 X,Y pos of 4 corners*
0 Add a 4 corners polygon primitive as box body*
4,1,4,$2,$3,$4,$5,$6,$7,$8,$9,$2,$3,0*
0 Add four circle primitives for the rounded corners*
1,1,$1+$1,$2,$3*
1,1,$1+$1,$4,$5*
1,1,$1+$1,$6,$7*
1,1,$1+$1,$8,$9*
0 Add four rect primitives between the rounded corners*
20,1,$1+$1,$2,$3,$4,$5,0*
20,1,$1+$1,$4,$5,$6,$7,0*
20,1,$1+$1,$6,$7,$8,$9,0*
20,1,$1+$1,$8,$9,$2,$3,0*%
G04 Aperture macros list end*
%ADD10RoundRect,0.076750X0.230250X-0.810250X0.230250X0.810250X-0.230250X0.810250X-0.230250X-0.810250X0*%
%ADD11R,1.500000X1.500000*%
%ADD12RoundRect,0.250000X0.475000X-0.250000X0.475000X0.250000X-0.475000X0.250000X-0.475000X-0.250000X0*%
%ADD13RoundRect,0.250000X-0.475000X0.250000X-0.475000X-0.250000X0.475000X-0.250000X0.475000X0.250000X0*%
%ADD14RoundRect,0.250000X0.262500X0.450000X-0.262500X0.450000X-0.262500X-0.450000X0.262500X-0.450000X0*%
%ADD15RoundRect,0.250000X-0.450000X0.262500X-0.450000X-0.262500X0.450000X-0.262500X0.450000X0.262500X0*%
%ADD16RoundRect,0.250000X0.450000X-0.262500X0.450000X0.262500X-0.450000X0.262500X-0.450000X-0.262500X0*%
%ADD17C,2.100000*%
%ADD18R,1.524000X0.762000*%
%ADD19RoundRect,0.250000X-0.250000X-0.475000X0.250000X-0.475000X0.250000X0.475000X-0.250000X0.475000X0*%
%ADD20RoundRect,0.250000X-0.262500X-0.450000X0.262500X-0.450000X0.262500X0.450000X-0.262500X0.450000X0*%
%ADD21RoundRect,0.250000X-0.300000X-0.300000X0.300000X-0.300000X0.300000X0.300000X-0.300000X0.300000X0*%
%ADD22C,1.524000*%
%ADD23RoundRect,0.250000X0.250000X0.475000X-0.250000X0.475000X-0.250000X-0.475000X0.250000X-0.475000X0*%
%ADD24C,1.600000*%
%ADD25RoundRect,0.062500X-0.062500X0.350000X-0.062500X-0.350000X0.062500X-0.350000X0.062500X0.350000X0*%
%ADD26RoundRect,0.062500X-0.350000X0.062500X-0.350000X-0.062500X0.350000X-0.062500X0.350000X0.062500X0*%
%ADD27R,2.700000X2.700000*%
%ADD28RoundRect,0.150000X0.512500X0.150000X-0.512500X0.150000X-0.512500X-0.150000X0.512500X-0.150000X0*%
%ADD29R,2.000000X2.000000*%
%ADD30C,2.000000*%
%ADD31R,1.890000X1.890000*%
%ADD32C,1.890000*%
%ADD33C,3.200000*%
%ADD34O,2.704000X5.204000*%
%ADD35O,2.454000X4.704000*%
%ADD36O,4.704000X2.454000*%
%ADD37C,1.854000*%
%ADD38RoundRect,0.150000X-0.150000X0.512500X-0.150000X-0.512500X0.150000X-0.512500X0.150000X0.512500X0*%
%ADD39R,2.000000X0.600000*%
%ADD40RoundRect,0.250000X-0.850000X0.375000X-0.850000X-0.375000X0.850000X-0.375000X0.850000X0.375000X0*%
%ADD41R,0.900000X1.500000*%
%ADD42R,1.500000X0.900000*%
%ADD43R,0.900000X0.900000*%
%ADD44RoundRect,0.250000X0.300000X-0.300000X0.300000X0.300000X-0.300000X0.300000X-0.300000X-0.300000X0*%
%ADD45RoundRect,0.090000X0.575000X-0.300000X0.575000X0.300000X-0.575000X0.300000X-0.575000X-0.300000X0*%
%ADD46RoundRect,0.090000X0.575000X-0.150000X0.575000X0.150000X-0.575000X0.150000X-0.575000X-0.150000X0*%
%ADD47O,2.304000X1.204000*%
%ADD48RoundRect,0.301000X0.701000X-0.301000X0.701000X0.301000X-0.701000X0.301000X-0.701000X-0.301000X0*%
%ADD49RoundRect,0.250000X-0.375000X-1.075000X0.375000X-1.075000X0.375000X1.075000X-0.375000X1.075000X0*%
G04 APERTURE END LIST*
D10*
X121011400Y-86944000D03*
X121661400Y-86944000D03*
X122311400Y-86944000D03*
X122961400Y-86944000D03*
X123611400Y-86944000D03*
X124261400Y-86944000D03*
X124911400Y-86944000D03*
X124911400Y-81204000D03*
X124261400Y-81204000D03*
X123611400Y-81204000D03*
X122961400Y-81204000D03*
X122311400Y-81204000D03*
X121661400Y-81204000D03*
X121011400Y-81204000D03*
D11*
X117068600Y-89077800D03*
X117119400Y-92811600D03*
X111150400Y-88900000D03*
X111150400Y-84531200D03*
D12*
X127304800Y-89088000D03*
X127304800Y-87188000D03*
D13*
X127127000Y-80787200D03*
X127127000Y-82687200D03*
D12*
X130530600Y-87264200D03*
X130530600Y-89164200D03*
D14*
X148386800Y-124917200D03*
X146561800Y-124917200D03*
D15*
X158590627Y-81245900D03*
X158590627Y-83070900D03*
D11*
X186450000Y-90360000D03*
D14*
X125476000Y-124460000D03*
X123651000Y-124460000D03*
D16*
X155740627Y-83083400D03*
X155740627Y-81258400D03*
D17*
X133640000Y-137950000D03*
X131100000Y-137950000D03*
X128560000Y-137950000D03*
D18*
X91363800Y-114355002D03*
X100558600Y-114355002D03*
X91363800Y-109855000D03*
X100558600Y-109855000D03*
D19*
X163631250Y-109893750D03*
X165531250Y-109893750D03*
D20*
X144880000Y-74375000D03*
X146705000Y-74375000D03*
D21*
X186157500Y-117384100D03*
X188957500Y-117384100D03*
D12*
X104241600Y-118160800D03*
X104241600Y-116260800D03*
D22*
X122220000Y-56800000D03*
X119680000Y-56780000D03*
D15*
X116681250Y-68912500D03*
X116681250Y-70737500D03*
D11*
X172974000Y-73914000D03*
D12*
X119481250Y-70787500D03*
X119481250Y-68887500D03*
D19*
X154081250Y-108943750D03*
X155981250Y-108943750D03*
D23*
X90728800Y-106527600D03*
X88828800Y-106527600D03*
X148386800Y-122732800D03*
X146486800Y-122732800D03*
D11*
X172420000Y-101130000D03*
D13*
X177450000Y-93560000D03*
X177450000Y-95460000D03*
D23*
X113370400Y-123240800D03*
X111470400Y-123240800D03*
D11*
X137922000Y-133604000D03*
D23*
X109204800Y-127050800D03*
X107304800Y-127050800D03*
D24*
X147325000Y-82875000D03*
X143825000Y-82875000D03*
D16*
X122450000Y-66562500D03*
X122450000Y-64737500D03*
D25*
X107763000Y-120632500D03*
X107263000Y-120632500D03*
X106763000Y-120632500D03*
X106263000Y-120632500D03*
X105763000Y-120632500D03*
X105263000Y-120632500D03*
D26*
X104550500Y-121345000D03*
X104550500Y-121845000D03*
X104550500Y-122345000D03*
X104550500Y-122845000D03*
X104550500Y-123345000D03*
X104550500Y-123845000D03*
D25*
X105263000Y-124557500D03*
X105763000Y-124557500D03*
X106263000Y-124557500D03*
X106763000Y-124557500D03*
X107263000Y-124557500D03*
X107763000Y-124557500D03*
D26*
X108475500Y-123845000D03*
X108475500Y-123345000D03*
X108475500Y-122845000D03*
X108475500Y-122345000D03*
X108475500Y-121845000D03*
X108475500Y-121345000D03*
D27*
X106513000Y-122595000D03*
D25*
X154564400Y-121024300D03*
X154064400Y-121024300D03*
X153564400Y-121024300D03*
X153064400Y-121024300D03*
X152564400Y-121024300D03*
X152064400Y-121024300D03*
D26*
X151351900Y-121736800D03*
X151351900Y-122236800D03*
X151351900Y-122736800D03*
X151351900Y-123236800D03*
X151351900Y-123736800D03*
X151351900Y-124236800D03*
D25*
X152064400Y-124949300D03*
X152564400Y-124949300D03*
X153064400Y-124949300D03*
X153564400Y-124949300D03*
X154064400Y-124949300D03*
X154564400Y-124949300D03*
D26*
X155276900Y-124236800D03*
X155276900Y-123736800D03*
X155276900Y-123236800D03*
X155276900Y-122736800D03*
X155276900Y-122236800D03*
X155276900Y-121736800D03*
D27*
X153314400Y-122986800D03*
D15*
X88798400Y-109782600D03*
X88798400Y-111607600D03*
D28*
X160868750Y-107456250D03*
X160868750Y-106506250D03*
X160868750Y-105556250D03*
X158593750Y-105556250D03*
X158593750Y-106506250D03*
X158593750Y-107456250D03*
D11*
X124333000Y-133477000D03*
D29*
X175020000Y-90190000D03*
D30*
X177560000Y-90190000D03*
X180100000Y-90190000D03*
D31*
X152625000Y-68675000D03*
D32*
X154325000Y-74705000D03*
X156025000Y-68675000D03*
X157725000Y-74705000D03*
X159425000Y-68675000D03*
D33*
X200400000Y-134880000D03*
D11*
X179020000Y-112410000D03*
D18*
X91465400Y-75579801D03*
X100660200Y-75579801D03*
X91465400Y-71079799D03*
X100660200Y-71079799D03*
D11*
X99060000Y-135001000D03*
D12*
X88823800Y-116469200D03*
X88823800Y-114569200D03*
D34*
X191830000Y-90440000D03*
D35*
X197830000Y-90440000D03*
D36*
X194830000Y-85740000D03*
D37*
X164642800Y-137795000D03*
X162102800Y-137795000D03*
X159562800Y-137795000D03*
X157022800Y-137795000D03*
D25*
X131806000Y-120552500D03*
X131306000Y-120552500D03*
X130806000Y-120552500D03*
X130306000Y-120552500D03*
X129806000Y-120552500D03*
X129306000Y-120552500D03*
D26*
X128593500Y-121265000D03*
X128593500Y-121765000D03*
X128593500Y-122265000D03*
X128593500Y-122765000D03*
X128593500Y-123265000D03*
X128593500Y-123765000D03*
D25*
X129306000Y-124477500D03*
X129806000Y-124477500D03*
X130306000Y-124477500D03*
X130806000Y-124477500D03*
X131306000Y-124477500D03*
X131806000Y-124477500D03*
D26*
X132518500Y-123765000D03*
X132518500Y-123265000D03*
X132518500Y-122765000D03*
X132518500Y-122265000D03*
X132518500Y-121765000D03*
X132518500Y-121265000D03*
D27*
X130556000Y-122515000D03*
D13*
X119525000Y-64687500D03*
X119525000Y-66587500D03*
D22*
X174450000Y-55920000D03*
X176990000Y-55940000D03*
D11*
X113284000Y-62992000D03*
X179020000Y-118610000D03*
D38*
X169225000Y-73665500D03*
X168275000Y-73665500D03*
X167325000Y-73665500D03*
X167325000Y-75940500D03*
X168275000Y-75940500D03*
X169225000Y-75940500D03*
D23*
X160450000Y-102550000D03*
X158550000Y-102550000D03*
D16*
X156565600Y-118668800D03*
X156565600Y-116843800D03*
D15*
X171150000Y-93577500D03*
X171150000Y-95402500D03*
D14*
X188520800Y-114844100D03*
X186695800Y-114844100D03*
D15*
X125250000Y-68987500D03*
X125250000Y-70812500D03*
D23*
X155940800Y-128219200D03*
X154040800Y-128219200D03*
D13*
X122450000Y-68950000D03*
X122450000Y-70850000D03*
D24*
X160440000Y-60700000D03*
X160440000Y-57200000D03*
D39*
X130531250Y-66867500D03*
X130531250Y-68137500D03*
X130531250Y-69407500D03*
X130531250Y-70677500D03*
X135431250Y-70677500D03*
X135431250Y-69407500D03*
X135431250Y-68137500D03*
X135431250Y-66867500D03*
D15*
X153240627Y-81245900D03*
X153240627Y-83070900D03*
D12*
X151231600Y-118704400D03*
X151231600Y-116804400D03*
D16*
X154381200Y-118668800D03*
X154381200Y-116843800D03*
D23*
X101041200Y-122224800D03*
X99141200Y-122224800D03*
X146725000Y-71275000D03*
X144825000Y-71275000D03*
D19*
X163681250Y-107493750D03*
X165581250Y-107493750D03*
D11*
X175310000Y-112370000D03*
D16*
X132080000Y-118006500D03*
X132080000Y-116181500D03*
D13*
X154300000Y-96450000D03*
X154300000Y-98350000D03*
D40*
X154100000Y-92325000D03*
X154100000Y-94475000D03*
D37*
X115112800Y-137922000D03*
X112572800Y-137922000D03*
X110032800Y-137922000D03*
X107492800Y-137922000D03*
X104952800Y-137922000D03*
D23*
X101041200Y-119888000D03*
X99141200Y-119888000D03*
X137282000Y-123444000D03*
X135382000Y-123444000D03*
D11*
X124002800Y-98552000D03*
D16*
X107950000Y-118110000D03*
X107950000Y-116285000D03*
D11*
X99060000Y-138938000D03*
X131064000Y-133604000D03*
D14*
X146700000Y-68125000D03*
X144875000Y-68125000D03*
X131262500Y-62300000D03*
X129437500Y-62300000D03*
D16*
X125300000Y-66612500D03*
X125300000Y-64787500D03*
D23*
X125476000Y-122428000D03*
X123576000Y-122428000D03*
D13*
X157412500Y-92362500D03*
X157412500Y-94262500D03*
D23*
X146575000Y-62475000D03*
X144675000Y-62475000D03*
X133030000Y-127254000D03*
X131130000Y-127254000D03*
D16*
X116725000Y-66587500D03*
X116725000Y-64762500D03*
X174450000Y-95422500D03*
X174450000Y-93597500D03*
D33*
X92400000Y-58750000D03*
D13*
X161790627Y-81270900D03*
X161790627Y-83170900D03*
D20*
X191496400Y-114844100D03*
X193321400Y-114844100D03*
D37*
X107619800Y-56794400D03*
X105079800Y-56794400D03*
X102539800Y-56794400D03*
X99999800Y-56794400D03*
D14*
X101041200Y-124663200D03*
X99216200Y-124663200D03*
D23*
X159954000Y-123850400D03*
X158054000Y-123850400D03*
D33*
X92450000Y-134950000D03*
D11*
X130175000Y-57150000D03*
D41*
X87603200Y-101309200D03*
X88873200Y-101309200D03*
X90143200Y-101309200D03*
X91413200Y-101309200D03*
X92683200Y-101309200D03*
X93953200Y-101309200D03*
X95223200Y-101309200D03*
X96493200Y-101309200D03*
X97763200Y-101309200D03*
X99033200Y-101309200D03*
X100303200Y-101309200D03*
X101573200Y-101309200D03*
X102843200Y-101309200D03*
X104113200Y-101309200D03*
D42*
X105363200Y-99544200D03*
X105363200Y-98274200D03*
X105363200Y-97004200D03*
X105363200Y-95734200D03*
X105363200Y-94464200D03*
X105363200Y-93194200D03*
X105363200Y-91924200D03*
X105363200Y-90654200D03*
X105363200Y-89384200D03*
X105363200Y-88114200D03*
X105363200Y-86844200D03*
X105363200Y-85574200D03*
D41*
X104113200Y-83809200D03*
X102843200Y-83809200D03*
X101573200Y-83809200D03*
X100303200Y-83809200D03*
X99033200Y-83809200D03*
X97763200Y-83809200D03*
X96493200Y-83809200D03*
X95223200Y-83809200D03*
X93953200Y-83809200D03*
X92683200Y-83809200D03*
X91413200Y-83809200D03*
X90143200Y-83809200D03*
X88873200Y-83809200D03*
X87603200Y-83809200D03*
D43*
X93923200Y-95459200D03*
X95323200Y-95459200D03*
X96723200Y-95459200D03*
X96723200Y-95459200D03*
X93923200Y-94059200D03*
X93923200Y-94059200D03*
X95323200Y-94059200D03*
X96723200Y-94059200D03*
X93923200Y-92659200D03*
X95323200Y-92659200D03*
X96723200Y-92659200D03*
D33*
X200350000Y-58660000D03*
D44*
X171323000Y-115954000D03*
X171323000Y-113154000D03*
D12*
X128270000Y-118044000D03*
X128270000Y-116144000D03*
D23*
X155931250Y-102543750D03*
X154031250Y-102543750D03*
D28*
X163700000Y-95750000D03*
X163700000Y-94800000D03*
X163700000Y-93850000D03*
X161425000Y-93850000D03*
X161425000Y-94800000D03*
X161425000Y-95750000D03*
D11*
X123977400Y-94437200D03*
D24*
X164360000Y-66480000D03*
X167860000Y-66480000D03*
D12*
X88849200Y-74457600D03*
X88849200Y-72557600D03*
D16*
X134366000Y-118006500D03*
X134366000Y-116181500D03*
D11*
X124231400Y-103098600D03*
X128041400Y-77800200D03*
D13*
X180260000Y-93530000D03*
X180260000Y-95430000D03*
D11*
X99060000Y-130810000D03*
D45*
X197165000Y-118350000D03*
X197165000Y-117550000D03*
D46*
X197165000Y-116400000D03*
X197165000Y-115400000D03*
X197165000Y-114900000D03*
X197165000Y-113900000D03*
D45*
X197165000Y-111950000D03*
X197165000Y-112750000D03*
D46*
X197165000Y-113400000D03*
X197165000Y-114400000D03*
X197165000Y-115900000D03*
X197165000Y-116900000D03*
D47*
X197740000Y-119470000D03*
D48*
X201920000Y-119470000D03*
D47*
X197740000Y-110830000D03*
D48*
X201920000Y-110830000D03*
D11*
X163957000Y-74803000D03*
D16*
X110286800Y-118108100D03*
X110286800Y-116283100D03*
D49*
X158131250Y-112093750D03*
X160931250Y-112093750D03*
D13*
X157400000Y-96450000D03*
X157400000Y-98350000D03*
D23*
X146675000Y-65325000D03*
X144775000Y-65325000D03*
M02*
