G04 #@! TF.GenerationSoftware,KiCad,Pcbnew,8.0.1*
G04 #@! TF.CreationDate,2024-11-07T22:36:47-08:00*
G04 #@! TF.ProjectId,hope_final_project,686f7065-5f66-4696-9e61-6c5f70726f6a,rev?*
G04 #@! TF.SameCoordinates,Original*
G04 #@! TF.FileFunction,Paste,Top*
G04 #@! TF.FilePolarity,Positive*
%FSLAX46Y46*%
G04 Gerber Fmt 4.6, Leading zero omitted, Abs format (unit mm)*
G04 Created by KiCad (PCBNEW 8.0.1) date 2024-11-07 22:36:47*
%MOMM*%
%LPD*%
G01*
G04 APERTURE LIST*
G04 Aperture macros list*
%AMRoundRect*
0 Rectangle with rounded corners*
0 $1 Rounding radius*
0 $2 $3 $4 $5 $6 $7 $8 $9 X,Y pos of 4 corners*
0 Add a 4 corners polygon primitive as box body*
4,1,4,$2,$3,$4,$5,$6,$7,$8,$9,$2,$3,0*
0 Add four circle primitives for the rounded corners*
1,1,$1+$1,$2,$3*
1,1,$1+$1,$4,$5*
1,1,$1+$1,$6,$7*
1,1,$1+$1,$8,$9*
0 Add four rect primitives between the rounded corners*
20,1,$1+$1,$2,$3,$4,$5,0*
20,1,$1+$1,$4,$5,$6,$7,0*
20,1,$1+$1,$6,$7,$8,$9,0*
20,1,$1+$1,$8,$9,$2,$3,0*%
G04 Aperture macros list end*
%ADD10RoundRect,0.051250X0.153750X-0.733750X0.153750X0.733750X-0.153750X0.733750X-0.153750X-0.733750X0*%
%ADD11RoundRect,0.250000X0.475000X-0.250000X0.475000X0.250000X-0.475000X0.250000X-0.475000X-0.250000X0*%
%ADD12RoundRect,0.250000X-0.475000X0.250000X-0.475000X-0.250000X0.475000X-0.250000X0.475000X0.250000X0*%
%ADD13RoundRect,0.250000X0.262500X0.450000X-0.262500X0.450000X-0.262500X-0.450000X0.262500X-0.450000X0*%
%ADD14RoundRect,0.250000X-0.450000X0.262500X-0.450000X-0.262500X0.450000X-0.262500X0.450000X0.262500X0*%
%ADD15RoundRect,0.250000X0.450000X-0.262500X0.450000X0.262500X-0.450000X0.262500X-0.450000X-0.262500X0*%
%ADD16R,1.524000X0.762000*%
%ADD17RoundRect,0.250000X-0.250000X-0.475000X0.250000X-0.475000X0.250000X0.475000X-0.250000X0.475000X0*%
%ADD18RoundRect,0.250000X-0.262500X-0.450000X0.262500X-0.450000X0.262500X0.450000X-0.262500X0.450000X0*%
%ADD19RoundRect,0.250000X-0.300000X-0.300000X0.300000X-0.300000X0.300000X0.300000X-0.300000X0.300000X0*%
%ADD20RoundRect,0.250000X0.250000X0.475000X-0.250000X0.475000X-0.250000X-0.475000X0.250000X-0.475000X0*%
%ADD21RoundRect,0.250000X-0.295000X0.295000X-0.295000X-0.295000X0.295000X-0.295000X0.295000X0.295000X0*%
%ADD22RoundRect,0.062500X-0.062500X0.350000X-0.062500X-0.350000X0.062500X-0.350000X0.062500X0.350000X0*%
%ADD23RoundRect,0.062500X-0.350000X0.062500X-0.350000X-0.062500X0.350000X-0.062500X0.350000X0.062500X0*%
%ADD24RoundRect,0.150000X0.512500X0.150000X-0.512500X0.150000X-0.512500X-0.150000X0.512500X-0.150000X0*%
%ADD25RoundRect,0.150000X-0.150000X0.512500X-0.150000X-0.512500X0.150000X-0.512500X0.150000X0.512500X0*%
%ADD26R,2.000000X0.600000*%
%ADD27RoundRect,0.250000X-0.850000X0.375000X-0.850000X-0.375000X0.850000X-0.375000X0.850000X0.375000X0*%
%ADD28R,0.900000X1.500000*%
%ADD29R,1.500000X0.900000*%
%ADD30R,0.900000X0.900000*%
%ADD31RoundRect,0.250000X0.300000X-0.300000X0.300000X0.300000X-0.300000X0.300000X-0.300000X-0.300000X0*%
%ADD32R,1.150000X0.600000*%
%ADD33R,1.150000X0.300000*%
%ADD34RoundRect,0.250000X-0.375000X-1.075000X0.375000X-1.075000X0.375000X1.075000X-0.375000X1.075000X0*%
G04 APERTURE END LIST*
D10*
X121011400Y-86944000D03*
X121661400Y-86944000D03*
X122311400Y-86944000D03*
X122961400Y-86944000D03*
X123611400Y-86944000D03*
X124261400Y-86944000D03*
X124911400Y-86944000D03*
X124911400Y-81204000D03*
X124261400Y-81204000D03*
X123611400Y-81204000D03*
X122961400Y-81204000D03*
X122311400Y-81204000D03*
X121661400Y-81204000D03*
X121011400Y-81204000D03*
D11*
X127304800Y-89088000D03*
X127304800Y-87188000D03*
D12*
X127127000Y-80787200D03*
X127127000Y-82687200D03*
D11*
X130530600Y-87264200D03*
X130530600Y-89164200D03*
D13*
X148386800Y-124917200D03*
X146561800Y-124917200D03*
D14*
X158590627Y-81245900D03*
X158590627Y-83070900D03*
D13*
X125476000Y-124460000D03*
X123651000Y-124460000D03*
D15*
X155740627Y-83083400D03*
X155740627Y-81258400D03*
D16*
X91363800Y-114355002D03*
X100558600Y-114355002D03*
X91363800Y-109855000D03*
X100558600Y-109855000D03*
D17*
X163631250Y-109893750D03*
X165531250Y-109893750D03*
D18*
X144880000Y-74375000D03*
X146705000Y-74375000D03*
D19*
X186157500Y-117384100D03*
X188957500Y-117384100D03*
D11*
X104241600Y-118160800D03*
X104241600Y-116260800D03*
D14*
X116681250Y-68912500D03*
X116681250Y-70737500D03*
D11*
X119481250Y-70787500D03*
X119481250Y-68887500D03*
D17*
X154081250Y-108943750D03*
X155981250Y-108943750D03*
D20*
X90728800Y-106527600D03*
X88828800Y-106527600D03*
X148386800Y-122732800D03*
X146486800Y-122732800D03*
D12*
X177450000Y-93560000D03*
X177450000Y-95460000D03*
D20*
X113370400Y-123240800D03*
X111470400Y-123240800D03*
X109204800Y-127050800D03*
X107304800Y-127050800D03*
D15*
X122450000Y-66562500D03*
X122450000Y-64737500D03*
D21*
X107188000Y-121920000D03*
X105838000Y-121920000D03*
X107188000Y-123270000D03*
X105838000Y-123270000D03*
D22*
X107763000Y-120632500D03*
X107263000Y-120632500D03*
X106763000Y-120632500D03*
X106263000Y-120632500D03*
X105763000Y-120632500D03*
X105263000Y-120632500D03*
D23*
X104550500Y-121345000D03*
X104550500Y-121845000D03*
X104550500Y-122345000D03*
X104550500Y-122845000D03*
X104550500Y-123345000D03*
X104550500Y-123845000D03*
D22*
X105263000Y-124557500D03*
X105763000Y-124557500D03*
X106263000Y-124557500D03*
X106763000Y-124557500D03*
X107263000Y-124557500D03*
X107763000Y-124557500D03*
D23*
X108475500Y-123845000D03*
X108475500Y-123345000D03*
X108475500Y-122845000D03*
X108475500Y-122345000D03*
X108475500Y-121845000D03*
X108475500Y-121345000D03*
D21*
X153989400Y-122311800D03*
X152639400Y-122311800D03*
X153989400Y-123661800D03*
X152639400Y-123661800D03*
D22*
X154564400Y-121024300D03*
X154064400Y-121024300D03*
X153564400Y-121024300D03*
X153064400Y-121024300D03*
X152564400Y-121024300D03*
X152064400Y-121024300D03*
D23*
X151351900Y-121736800D03*
X151351900Y-122236800D03*
X151351900Y-122736800D03*
X151351900Y-123236800D03*
X151351900Y-123736800D03*
X151351900Y-124236800D03*
D22*
X152064400Y-124949300D03*
X152564400Y-124949300D03*
X153064400Y-124949300D03*
X153564400Y-124949300D03*
X154064400Y-124949300D03*
X154564400Y-124949300D03*
D23*
X155276900Y-124236800D03*
X155276900Y-123736800D03*
X155276900Y-123236800D03*
X155276900Y-122736800D03*
X155276900Y-122236800D03*
X155276900Y-121736800D03*
D14*
X88798400Y-109782600D03*
X88798400Y-111607600D03*
D24*
X160868750Y-107456250D03*
X160868750Y-106506250D03*
X160868750Y-105556250D03*
X158593750Y-105556250D03*
X158593750Y-106506250D03*
X158593750Y-107456250D03*
D16*
X91465400Y-75579801D03*
X100660200Y-75579801D03*
X91465400Y-71079799D03*
X100660200Y-71079799D03*
D11*
X88823800Y-116469200D03*
X88823800Y-114569200D03*
D21*
X131231000Y-121840000D03*
X129881000Y-121840000D03*
X131231000Y-123190000D03*
X129881000Y-123190000D03*
D22*
X131806000Y-120552500D03*
X131306000Y-120552500D03*
X130806000Y-120552500D03*
X130306000Y-120552500D03*
X129806000Y-120552500D03*
X129306000Y-120552500D03*
D23*
X128593500Y-121265000D03*
X128593500Y-121765000D03*
X128593500Y-122265000D03*
X128593500Y-122765000D03*
X128593500Y-123265000D03*
X128593500Y-123765000D03*
D22*
X129306000Y-124477500D03*
X129806000Y-124477500D03*
X130306000Y-124477500D03*
X130806000Y-124477500D03*
X131306000Y-124477500D03*
X131806000Y-124477500D03*
D23*
X132518500Y-123765000D03*
X132518500Y-123265000D03*
X132518500Y-122765000D03*
X132518500Y-122265000D03*
X132518500Y-121765000D03*
X132518500Y-121265000D03*
D12*
X119525000Y-64687500D03*
X119525000Y-66587500D03*
D25*
X169225000Y-73665500D03*
X168275000Y-73665500D03*
X167325000Y-73665500D03*
X167325000Y-75940500D03*
X168275000Y-75940500D03*
X169225000Y-75940500D03*
D20*
X160450000Y-102550000D03*
X158550000Y-102550000D03*
D15*
X156565600Y-118668800D03*
X156565600Y-116843800D03*
D14*
X171150000Y-93577500D03*
X171150000Y-95402500D03*
D13*
X188520800Y-114844100D03*
X186695800Y-114844100D03*
D14*
X125250000Y-68987500D03*
X125250000Y-70812500D03*
D20*
X155940800Y-128219200D03*
X154040800Y-128219200D03*
D12*
X122450000Y-68950000D03*
X122450000Y-70850000D03*
D26*
X130531250Y-66867500D03*
X130531250Y-68137500D03*
X130531250Y-69407500D03*
X130531250Y-70677500D03*
X135431250Y-70677500D03*
X135431250Y-69407500D03*
X135431250Y-68137500D03*
X135431250Y-66867500D03*
D14*
X153240627Y-81245900D03*
X153240627Y-83070900D03*
D11*
X151231600Y-118704400D03*
X151231600Y-116804400D03*
D15*
X154381200Y-118668800D03*
X154381200Y-116843800D03*
D20*
X101041200Y-122224800D03*
X99141200Y-122224800D03*
X146725000Y-71275000D03*
X144825000Y-71275000D03*
D17*
X163681250Y-107493750D03*
X165581250Y-107493750D03*
D15*
X132080000Y-118006500D03*
X132080000Y-116181500D03*
D12*
X154300000Y-96450000D03*
X154300000Y-98350000D03*
D27*
X154100000Y-92325000D03*
X154100000Y-94475000D03*
D20*
X101041200Y-119888000D03*
X99141200Y-119888000D03*
X137282000Y-123444000D03*
X135382000Y-123444000D03*
D15*
X107950000Y-118110000D03*
X107950000Y-116285000D03*
D13*
X146700000Y-68125000D03*
X144875000Y-68125000D03*
X131262500Y-62300000D03*
X129437500Y-62300000D03*
D15*
X125300000Y-66612500D03*
X125300000Y-64787500D03*
D20*
X125476000Y-122428000D03*
X123576000Y-122428000D03*
D12*
X157412500Y-92362500D03*
X157412500Y-94262500D03*
D20*
X146575000Y-62475000D03*
X144675000Y-62475000D03*
X133030000Y-127254000D03*
X131130000Y-127254000D03*
D15*
X116725000Y-66587500D03*
X116725000Y-64762500D03*
X174450000Y-95422500D03*
X174450000Y-93597500D03*
D12*
X161790627Y-81270900D03*
X161790627Y-83170900D03*
D18*
X191496400Y-114844100D03*
X193321400Y-114844100D03*
D13*
X101041200Y-124663200D03*
X99216200Y-124663200D03*
D20*
X159954000Y-123850400D03*
X158054000Y-123850400D03*
D28*
X87603200Y-101309200D03*
X88873200Y-101309200D03*
X90143200Y-101309200D03*
X91413200Y-101309200D03*
X92683200Y-101309200D03*
X93953200Y-101309200D03*
X95223200Y-101309200D03*
X96493200Y-101309200D03*
X97763200Y-101309200D03*
X99033200Y-101309200D03*
X100303200Y-101309200D03*
X101573200Y-101309200D03*
X102843200Y-101309200D03*
X104113200Y-101309200D03*
D29*
X105363200Y-99544200D03*
X105363200Y-98274200D03*
X105363200Y-97004200D03*
X105363200Y-95734200D03*
X105363200Y-94464200D03*
X105363200Y-93194200D03*
X105363200Y-91924200D03*
X105363200Y-90654200D03*
X105363200Y-89384200D03*
X105363200Y-88114200D03*
X105363200Y-86844200D03*
X105363200Y-85574200D03*
D28*
X104113200Y-83809200D03*
X102843200Y-83809200D03*
X101573200Y-83809200D03*
X100303200Y-83809200D03*
X99033200Y-83809200D03*
X97763200Y-83809200D03*
X96493200Y-83809200D03*
X95223200Y-83809200D03*
X93953200Y-83809200D03*
X92683200Y-83809200D03*
X91413200Y-83809200D03*
X90143200Y-83809200D03*
X88873200Y-83809200D03*
X87603200Y-83809200D03*
D30*
X93923200Y-95459200D03*
X95323200Y-95459200D03*
X96723200Y-95459200D03*
X96723200Y-95459200D03*
X93923200Y-94059200D03*
X93923200Y-94059200D03*
X95323200Y-94059200D03*
X96723200Y-94059200D03*
X93923200Y-92659200D03*
X95323200Y-92659200D03*
X96723200Y-92659200D03*
D31*
X171323000Y-115954000D03*
X171323000Y-113154000D03*
D11*
X128270000Y-118044000D03*
X128270000Y-116144000D03*
D20*
X155931250Y-102543750D03*
X154031250Y-102543750D03*
D24*
X163700000Y-95750000D03*
X163700000Y-94800000D03*
X163700000Y-93850000D03*
X161425000Y-93850000D03*
X161425000Y-94800000D03*
X161425000Y-95750000D03*
D11*
X88849200Y-74457600D03*
X88849200Y-72557600D03*
D15*
X134366000Y-118006500D03*
X134366000Y-116181500D03*
D12*
X180260000Y-93530000D03*
X180260000Y-95430000D03*
D32*
X197165000Y-118350000D03*
X197165000Y-117550000D03*
D33*
X197165000Y-116400000D03*
X197165000Y-115400000D03*
X197165000Y-114900000D03*
X197165000Y-113900000D03*
D32*
X197165000Y-111950000D03*
X197165000Y-112750000D03*
D33*
X197165000Y-113400000D03*
X197165000Y-114400000D03*
X197165000Y-115900000D03*
X197165000Y-116900000D03*
D15*
X110286800Y-118108100D03*
X110286800Y-116283100D03*
D34*
X158131250Y-112093750D03*
X160931250Y-112093750D03*
D12*
X157400000Y-96450000D03*
X157400000Y-98350000D03*
D20*
X146675000Y-65325000D03*
X144775000Y-65325000D03*
M02*
