G04 #@! TF.GenerationSoftware,KiCad,Pcbnew,8.0.1*
G04 #@! TF.CreationDate,2024-11-07T20:40:50-08:00*
G04 #@! TF.ProjectId,hope_final_project,686f7065-5f66-4696-9e61-6c5f70726f6a,rev?*
G04 #@! TF.SameCoordinates,Original*
G04 #@! TF.FileFunction,Legend,Bot*
G04 #@! TF.FilePolarity,Positive*
%FSLAX46Y46*%
G04 Gerber Fmt 4.6, Leading zero omitted, Abs format (unit mm)*
G04 Created by KiCad (PCBNEW 8.0.1) date 2024-11-07 20:40:50*
%MOMM*%
%LPD*%
G01*
G04 APERTURE LIST*
G04 Aperture macros list*
%AMRoundRect*
0 Rectangle with rounded corners*
0 $1 Rounding radius*
0 $2 $3 $4 $5 $6 $7 $8 $9 X,Y pos of 4 corners*
0 Add a 4 corners polygon primitive as box body*
4,1,4,$2,$3,$4,$5,$6,$7,$8,$9,$2,$3,0*
0 Add four circle primitives for the rounded corners*
1,1,$1+$1,$2,$3*
1,1,$1+$1,$4,$5*
1,1,$1+$1,$6,$7*
1,1,$1+$1,$8,$9*
0 Add four rect primitives between the rounded corners*
20,1,$1+$1,$2,$3,$4,$5,0*
20,1,$1+$1,$4,$5,$6,$7,0*
20,1,$1+$1,$6,$7,$8,$9,0*
20,1,$1+$1,$8,$9,$2,$3,0*%
G04 Aperture macros list end*
%ADD10C,2.100000*%
%ADD11C,1.524000*%
%ADD12C,1.600000*%
%ADD13R,2.000000X2.000000*%
%ADD14C,2.000000*%
%ADD15R,1.890000X1.890000*%
%ADD16C,1.890000*%
%ADD17O,2.704000X5.204000*%
%ADD18O,2.454000X4.704000*%
%ADD19O,4.704000X2.454000*%
%ADD20C,1.854000*%
%ADD21O,2.304000X1.204000*%
%ADD22RoundRect,0.301000X0.701000X-0.301000X0.701000X0.301000X-0.701000X0.301000X-0.701000X-0.301000X0*%
G04 APERTURE END LIST*
%LPC*%
D10*
X133640000Y-137950000D03*
X131100000Y-137950000D03*
X128560000Y-137950000D03*
D11*
X122220000Y-56800000D03*
X119680000Y-56780000D03*
D12*
X147325000Y-82875000D03*
X143825000Y-82875000D03*
D13*
X175020000Y-90190000D03*
D14*
X177560000Y-90190000D03*
X180100000Y-90190000D03*
D15*
X152625000Y-68675000D03*
D16*
X154325000Y-74705000D03*
X156025000Y-68675000D03*
X157725000Y-74705000D03*
X159425000Y-68675000D03*
D17*
X191830000Y-90440000D03*
D18*
X197830000Y-90440000D03*
D19*
X194830000Y-85740000D03*
D20*
X164642800Y-137795000D03*
X162102800Y-137795000D03*
X159562800Y-137795000D03*
X157022800Y-137795000D03*
D11*
X174450000Y-55920000D03*
X176990000Y-55940000D03*
D12*
X160440000Y-60700000D03*
X160440000Y-57200000D03*
D20*
X115112800Y-137922000D03*
X112572800Y-137922000D03*
X110032800Y-137922000D03*
X107492800Y-137922000D03*
X104952800Y-137922000D03*
X107619800Y-56794400D03*
X105079800Y-56794400D03*
X102539800Y-56794400D03*
X99999800Y-56794400D03*
D12*
X164360000Y-66480000D03*
X167860000Y-66480000D03*
D21*
X197740000Y-119470000D03*
D22*
X201920000Y-119470000D03*
D21*
X197740000Y-110830000D03*
D22*
X201920000Y-110830000D03*
%LPD*%
M02*
