M48
; DRILL file {KiCad 8.0.1} date 2024-11-07T21:01:47-0800
; FORMAT={-:-/ absolute / metric / decimal}
; #@! TF.CreationDate,2024-11-07T21:01:47-08:00
; #@! TF.GenerationSoftware,Kicad,Pcbnew,8.0.1
; #@! TF.FileFunction,Plated,1,2,PTH
FMAT,2
METRIC
; #@! TA.AperFunction,Plated,PTH,ViaDrill
T1C0.305
; #@! TA.AperFunction,Plated,PTH,ViaDrill
T2C0.508
; #@! TA.AperFunction,Plated,PTH,ComponentDrill
T3C0.600
; #@! TA.AperFunction,Plated,PTH,ComponentDrill
T4C0.762
; #@! TA.AperFunction,Plated,PTH,ComponentDrill
T5C0.800
; #@! TA.AperFunction,Plated,PTH,ComponentDrill
T6C1.000
; #@! TA.AperFunction,Plated,PTH,ComponentDrill
T7C1.100
; #@! TA.AperFunction,Plated,PTH,ComponentDrill
T8C1.140
%
G90
G05
T1
X190.068Y-112.09
X190.094Y-115.9
X190.144Y-119.659
X195.79Y-114.72
T2
X87.224Y-103.734
X87.3Y-113.157
X87.452Y-70.409
X87.681Y-119.685
X87.9Y-79.02
X88.829Y-103.759
X88.9Y-81.686
X88.976Y-77.292
X90.17Y-81.737
X91.415Y-81.763
X91.542Y-112.192
X92.19Y-127.76
X92.253Y-117.551
X92.71Y-107.518
X93.802Y-68.199
X94.183Y-105.689
X95.275Y-105.664
X95.377Y-131.064
X96.012Y-138.811
X96.342Y-105.689
X96.901Y-59.207
X98.069Y-65.075
X98.146Y-68.682
X98.501Y-79.375
X99.64Y-107.62
X100.127Y-81.382
X102.235Y-127.0
X102.99Y-119.87
X103.226Y-74.473
X105.41Y-129.54
X106.883Y-81.509
X106.985Y-70.79
X107.925Y-86.411
X108.204Y-131.699
X108.864Y-67.742
X109.042Y-107.671
X109.576Y-64.211
X110.744Y-108.28
X110.846Y-100.305
X111.023Y-59.436
X112.23Y-114.32
X112.71Y-78.92
X112.725Y-106.02
X112.8Y-55.3
X113.06Y-70.87
X113.894Y-92.151
X118.008Y-72.365
X118.11Y-121.33
X118.135Y-67.767
X118.45Y-128.6
X120.117Y-87.706
X121.006Y-67.742
X121.107Y-72.314
X122.15Y-114.45
X122.352Y-75.387
X123.62Y-61.0
X123.927Y-80.061
X123.952Y-78.613
X126.55Y-128.65
X126.72Y-83.45
X127.0Y-75.565
X127.5Y-64.03
X127.55Y-66.65
X127.55Y-72.2
X128.594Y-119.493
X128.651Y-70.993
X130.175Y-59.69
X130.683Y-65.278
X130.81Y-72.39
X131.53Y-82.09
X131.826Y-75.057
X131.978Y-100.863
X132.588Y-64.008
X132.85Y-57.9
X134.747Y-73.152
X136.55Y-128.75
X137.65Y-62.67
X137.668Y-70.739
X138.83Y-82.68
X139.649Y-97.231
X139.649Y-113.284
X139.79Y-69.38
X139.93Y-75.18
X140.386Y-116.713
X143.002Y-72.644
X143.06Y-89.67
X144.323Y-102.489
X145.85Y-128.7
X145.872Y-116.535
X146.89Y-57.86
X148.946Y-97.079
X149.05Y-72.3
X149.38Y-78.78
X151.333Y-119.888
X151.384Y-94.488
X151.638Y-87.935
X155.473Y-115.011
X157.607Y-120.929
X158.521Y-118.516
X159.35Y-109.6
X159.614Y-130.556
X160.35Y-100.35
X160.7Y-78.85
X160.985Y-121.666
X161.036Y-96.95
X162.85Y-128.0
X162.9Y-118.45
X162.916Y-89.764
X163.6Y-70.91
X164.719Y-100.736
X165.15Y-103.7
X167.005Y-97.155
X167.918Y-82.169
X169.18Y-53.83
X169.25Y-118.3
X169.76Y-127.91
X170.383Y-109.677
X171.45Y-69.469
X171.52Y-61.64
X171.831Y-78.867
X172.339Y-105.537
X173.101Y-98.146
X175.55Y-86.3
X175.7Y-79.6
X177.26Y-109.63
X177.3Y-115.72
X178.689Y-123.571
X181.635Y-97.942
X183.163Y-111.567
X183.794Y-115.214
X185.572Y-120.777
X188.03Y-95.16
X189.16Y-130.88
X194.07Y-102.97
X194.78Y-111.1
X195.29Y-119.49
X195.78Y-115.689
X205.14Y-126.01
T4
X119.68Y-56.78
X122.22Y-56.8
X174.45Y-55.92
X176.99Y-55.94
T5
X143.825Y-82.875
X147.325Y-82.875
X160.44Y-57.2
X160.44Y-60.7
X164.36Y-66.48
X167.86Y-66.48
T6
X175.02Y-90.19
X177.56Y-90.19
X180.1Y-90.19
T7
X100.0Y-56.794
X102.54Y-56.794
X104.953Y-137.922
X105.08Y-56.794
X107.493Y-137.922
X107.62Y-56.794
X110.033Y-137.922
X112.573Y-137.922
X115.113Y-137.922
X128.56Y-137.95
X131.1Y-137.95
X133.64Y-137.95
X157.023Y-137.795
X159.563Y-137.795
X162.103Y-137.795
X164.643Y-137.795
T8
X152.625Y-68.675
X154.325Y-74.705
X156.025Y-68.675
X157.725Y-74.705
X159.425Y-68.675
T3
X197.19Y-110.83G85X198.29Y-110.83
G05
X197.19Y-119.47G85X198.29Y-119.47
G05
X201.52Y-110.83G85X202.32Y-110.83
G05
X201.52Y-119.47G85X202.32Y-119.47
G05
T6
X191.83Y-89.19G85X191.83Y-91.69
G05
X193.83Y-85.74G85X195.83Y-85.74
G05
X197.83Y-89.44G85X197.83Y-91.44
G05
M30
